REM DIRINDEX 1\5,1\2\7,1\2\8,1\3\9,1\3\10,1\4\11,1\4\12,1\6\13,1\6\14
REM DIRNAME folder01,folder02,folder03,folder04,folder05,folder06,folder07,folder08,folder09,folder10,folder11,folder12,folder13,folder14
TITLE ""
FILE "Disk1Track03.mp3" MP3
  TRACK 01 AUDIO
    TITLE "7:cjc067_0092"
    INDEX 01 00:00:00
  TRACK 02 AUDIO
    TITLE "8:cjc067_0093"
    INDEX 01 00:01:73
  TRACK 03 AUDIO
    TITLE "8:cjc067_0094"
    INDEX 01 00:03:29
  TRACK 04 AUDIO
    TITLE "8:cjc067_0095"
    INDEX 01 00:04:60
  TRACK 05 AUDIO
    TITLE "8:cjc067_0096"
    INDEX 01 00:06:06
  TRACK 06 AUDIO
    TITLE "0:"
    INDEX 01 00:07:17
  TRACK 07 AUDIO
    TITLE "8:cjc067_0097"
    INDEX 01 00:08:03
  TRACK 08 AUDIO
    TITLE "8:cjc067_0098"
    INDEX 01 00:09:30
  TRACK 09 AUDIO
    TITLE "8:cjc067_0099"
    INDEX 01 00:10:63
  TRACK 10 AUDIO
    TITLE "8:cjc067_0100"
    INDEX 01 00:12:30
  TRACK 11 AUDIO
    TITLE "0:"
    INDEX 01 00:13:47
  TRACK 12 AUDIO
    TITLE "8:cjc067_0101"
    INDEX 01 00:14:17
  TRACK 13 AUDIO
    TITLE "8:cjc067_0102"
    INDEX 01 00:15:36
  TRACK 14 AUDIO
    TITLE "8:cjc067_0103"
    INDEX 01 00:16:59
  TRACK 15 AUDIO
    TITLE "8:cjc067_0104"
    INDEX 01 00:18:15
  TRACK 16 AUDIO
    TITLE "0:"
    INDEX 01 00:19:26
  TRACK 17 AUDIO
    TITLE "8:cjc067_0105"
    INDEX 01 00:20:10
  TRACK 18 AUDIO
    TITLE "8:cjc067_0106"
    INDEX 01 00:21:45
  TRACK 19 AUDIO
    TITLE "8:cjc067_0107"
    INDEX 01 00:22:72
  TRACK 20 AUDIO
    TITLE "8:cjc067_0108"
    INDEX 01 00:24:29
  TRACK 21 AUDIO
    TITLE "0:"
    INDEX 01 00:25:45
  TRACK 22 AUDIO
    TITLE "8:cjc067_0109"
    INDEX 01 00:26:18
  TRACK 23 AUDIO
    TITLE "8:cjc067_0110"
    INDEX 01 00:27:32
  TRACK 24 AUDIO
    TITLE "8:cjc067_0111"
    INDEX 01 00:28:53
  TRACK 25 AUDIO
    TITLE "8:cjc067_0112"
    INDEX 01 00:29:68
  TRACK 26 AUDIO
    TITLE "0:"
    INDEX 01 00:31:16
  TRACK 27 AUDIO
    TITLE "8:cjc067_0113"
    INDEX 01 00:32:09
  TRACK 28 AUDIO
    TITLE "8:cjc067_0114"
    INDEX 01 00:33:28
  TRACK 29 AUDIO
    TITLE "8:cjc067_0115"
    INDEX 01 00:34:55
  TRACK 30 AUDIO
    TITLE "8:cjc067_0116"
    INDEX 01 00:36:13
  TRACK 31 AUDIO
    TITLE "0:"
    INDEX 01 00:37:28
  TRACK 32 AUDIO
    TITLE "8:cjc067_0117"
    INDEX 01 00:39:05
  TRACK 33 AUDIO
    TITLE "8:cjc067_0118"
    INDEX 01 00:40:24
  TRACK 34 AUDIO
    TITLE "8:cjc067_0119"
    INDEX 01 00:41:59
  TRACK 35 AUDIO
    TITLE "8:cjc067_0120"
    INDEX 01 00:43:21
  TRACK 36 AUDIO
    TITLE "0:"
    INDEX 01 00:44:50
  TRACK 37 AUDIO
    TITLE "8:cjc067_0121"
    INDEX 01 00:45:45
  TRACK 38 AUDIO
    TITLE "8:cjc067_0122"
    INDEX 01 00:46:70
  TRACK 39 AUDIO
    TITLE "8:cjc067_0123"
    INDEX 01 00:48:28
  TRACK 40 AUDIO
    TITLE "8:cjc067_0124"
    INDEX 01 00:49:51
  TRACK 41 AUDIO
    TITLE "0:"
    INDEX 01 00:51:11
  TRACK 42 AUDIO
    TITLE "8:cjc067_0125"
    INDEX 01 00:52:08
  TRACK 43 AUDIO
    TITLE "8:cjc067_0126"
    INDEX 01 00:53:45
  TRACK 44 AUDIO
    TITLE "8:cjc067_0127"
    INDEX 01 00:54:68
  TRACK 45 AUDIO
    TITLE "8:cjc067_0128"
    INDEX 01 00:56:25
  TRACK 46 AUDIO
    TITLE "0:"
    INDEX 01 00:57:35
  TRACK 47 AUDIO
    TITLE "8:cjc067_0129"
    INDEX 01 00:58:20
  TRACK 48 AUDIO
    TITLE "8:cjc067_0130"
    INDEX 01 00:59:49
  TRACK 49 AUDIO
    TITLE "8:cjc067_0131"
    INDEX 01 01:00:74
  TRACK 50 AUDIO
    TITLE "8:cjc067_0132"
    INDEX 01 01:02:12
  TRACK 51 AUDIO
    TITLE "0:"
    INDEX 01 01:03:35
  TRACK 52 AUDIO
    TITLE "8:cjc067_0133"
    INDEX 01 01:04:15
  TRACK 53 AUDIO
    TITLE "8:cjc067_0134"
    INDEX 01 01:05:34
  TRACK 54 AUDIO
    TITLE "8:cjc067_0135"
    INDEX 01 01:06:57
  TRACK 55 AUDIO
    TITLE "8:cjc067_0136"
    INDEX 01 01:08:21
  TRACK 56 AUDIO
    TITLE "0:"
    INDEX 01 01:09:38
  TRACK 57 AUDIO
    TITLE "8:cjc067_0137"
    INDEX 01 01:10:06
  TRACK 58 AUDIO
    TITLE "8:cjc067_0138"
    INDEX 01 01:11:41
  TRACK 59 AUDIO
    TITLE "8:cjc067_0139"
    INDEX 01 01:13:02
  TRACK 60 AUDIO
    TITLE "8:cjc067_0140"
    INDEX 01 01:14:43
  TRACK 61 AUDIO
    TITLE "0:"
    INDEX 01 01:16:09
  TRACK 62 AUDIO
    TITLE "8:cjc067_0141"
    INDEX 01 01:16:58
  TRACK 63 AUDIO
    TITLE "8:cjc067_0142"
    INDEX 01 01:18:06
  TRACK 64 AUDIO
    TITLE "8:cjc067_0143"
    INDEX 01 01:19:30
  TRACK 65 AUDIO
    TITLE "8:cjc067_0144"
    INDEX 01 01:21:02
  TRACK 66 AUDIO
    TITLE "0:"
    INDEX 01 01:22:19
  TRACK 67 AUDIO
    TITLE "8:cjc067_0145"
    INDEX 01 01:23:22
  TRACK 68 AUDIO
    TITLE "8:cjc067_0146"
    INDEX 01 01:24:37
  TRACK 69 AUDIO
    TITLE "8:cjc067_0147"
    INDEX 01 01:25:74
  TRACK 70 AUDIO
    TITLE "8:cjc067_0148"
    INDEX 01 01:27:26
  TRACK 71 AUDIO
    TITLE "0:"
    INDEX 01 01:28:63
  TRACK 72 AUDIO
    TITLE "8:cjc067_0149"
    INDEX 01 01:29:62
  TRACK 73 AUDIO
    TITLE "8:cjc067_0150"
    INDEX 01 01:31:12
  TRACK 74 AUDIO
    TITLE "8:cjc067_0151"
    INDEX 01 01:32:39
  TRACK 75 AUDIO
    TITLE "8:cjc067_0152"
    INDEX 01 01:33:54
  TRACK 76 AUDIO
    TITLE "0:"
    INDEX 01 01:35:18
  TRACK 77 AUDIO
    TITLE "8:cjc067_0153"
    INDEX 01 01:36:37
  TRACK 78 AUDIO
    TITLE "8:cjc067_0154"
    INDEX 01 01:37:73
  TRACK 79 AUDIO
    TITLE "8:cjc067_0155"
    INDEX 01 01:39:35
  TRACK 80 AUDIO
    TITLE "8:cjc067_0156"
    INDEX 01 01:40:60
  TRACK 81 AUDIO
    TITLE "0:"
    INDEX 01 01:41:73
  TRACK 82 AUDIO
    TITLE "8:cjc067_0157"
    INDEX 01 01:42:73
  TRACK 83 AUDIO
    TITLE "8:cjc067_0158"
    INDEX 01 01:44:34
  TRACK 84 AUDIO
    TITLE "8:cjc067_0159"
    INDEX 01 01:45:59
  TRACK 85 AUDIO
    TITLE "8:cjc067_0160"
    INDEX 01 01:47:27
  TRACK 86 AUDIO
    TITLE "0:"
    INDEX 01 01:48:52
  TRACK 87 AUDIO
    TITLE "8:cjc067_0161"
    INDEX 01 01:49:39
  TRACK 88 AUDIO
    TITLE "8:cjc067_0162"
    INDEX 01 01:50:72
  TRACK 89 AUDIO
    TITLE "8:cjc067_0163"
    INDEX 01 01:52:28
  TRACK 90 AUDIO
    TITLE "8:cjc067_0164"
    INDEX 01 01:53:41
  TRACK 91 AUDIO
    TITLE "0:"
    INDEX 01 01:55:03
  TRACK 92 AUDIO
    TITLE "8:cjc067_0165"
    INDEX 01 01:55:60
  TRACK 93 AUDIO
    TITLE "8:cjc067_0166"
    INDEX 01 01:57:08
  TRACK 94 AUDIO
    TITLE "8:cjc067_0167"
    INDEX 01 01:58:42
  TRACK 95 AUDIO
    TITLE "8:cjc067_0168"
    INDEX 01 01:59:61
  TRACK 96 AUDIO
    TITLE "0:"
    INDEX 01 02:01:01
  TRACK 97 AUDIO
    TITLE "8:cjc067_0169"
    INDEX 01 02:02:13
  TRACK 98 AUDIO
    TITLE "8:cjc067_0170"
    INDEX 01 02:03:38
  TRACK 99 AUDIO
    TITLE "8:cjc067_0171"
    INDEX 01 02:04:55
  TRACK 100 AUDIO
    TITLE "8:cjc067_0172"
    INDEX 01 02:06:10
  TRACK 101 AUDIO
    TITLE "0:"
    INDEX 01 02:07:22
  TRACK 102 AUDIO
    TITLE "8:cjc067_0173"
    INDEX 01 02:08:41
  TRACK 103 AUDIO
    TITLE "8:cjc067_0174"
    INDEX 01 02:09:60
  TRACK 104 AUDIO
    TITLE "8:cjc067_0175"
    INDEX 01 02:11:21
  TRACK 105 AUDIO
    TITLE "8:cjc067_0176"
    INDEX 01 02:12:50
  TRACK 106 AUDIO
    TITLE "0:"
    INDEX 01 02:13:73
  TRACK 107 AUDIO
    TITLE "8:cjc067_0177"
    INDEX 01 02:14:67
  TRACK 108 AUDIO
    TITLE "8:cjc067_0178"
    INDEX 01 02:16:13
  TRACK 109 AUDIO
    TITLE "8:cjc067_0179"
    INDEX 01 02:17:44
  TRACK 110 AUDIO
    TITLE "8:cjc067_0180"
    INDEX 01 02:19:01
  TRACK 111 AUDIO
    TITLE "0:"
    INDEX 01 02:20:18
  TRACK 112 AUDIO
    TITLE "8:cjc067_0181"
    INDEX 01 02:21:28
  TRACK 113 AUDIO
    TITLE "8:cjc067_0182"
    INDEX 01 02:22:41
  TRACK 114 AUDIO
    TITLE "8:cjc067_0183"
    INDEX 01 02:23:68
  TRACK 115 AUDIO
    TITLE "8:cjc067_0184"
    INDEX 01 02:25:23
  TRACK 116 AUDIO
    TITLE "0:"
    INDEX 01 02:26:60
  TRACK 117 AUDIO
    TITLE "8:cjc067_0185"
    INDEX 01 02:27:50
  TRACK 118 AUDIO
    TITLE "8:cjc067_0186"
    INDEX 01 02:29:02
  TRACK 119 AUDIO
    TITLE "8:cjc067_0187"
    INDEX 01 02:30:29
  TRACK 120 AUDIO
    TITLE "8:cjc067_0188"
    INDEX 01 02:31:42
  TRACK 121 AUDIO
    TITLE "0:"
    INDEX 01 02:32:72
